<?xml version="1.0" encoding="UTF-8" standalone="no"?>
<!-- Created with Inkscape (http://www.inkscape.org/) -->

<svg
   width="1060"
   height="380"
   viewBox="0 0 280.45835 100.54165"
   version="1.1"
   id="svg179"
   inkscape:version="1.1.2 (b8e25be833, 2022-02-05)"
   sodipodi:docname="logoCalculette.svg"
   xmlns:inkscape="http://www.inkscape.org/namespaces/inkscape"
   xmlns:sodipodi="http://sodipodi.sourceforge.net/DTD/sodipodi-0.dtd"
   xmlns="http://www.w3.org/2000/svg"
   xmlns:svg="http://www.w3.org/2000/svg">
  <sodipodi:namedview
     id="namedview181"
     pagecolor="#ffffff"
     bordercolor="#666666"
     borderopacity="1.0"
     inkscape:pageshadow="2"
     inkscape:pageopacity="0.0"
     inkscape:pagecheckerboard="true"
     inkscape:document-units="mm"
     showgrid="false"
     units="px"
     inkscape:zoom="1.0998546"
     inkscape:cx="464.60687"
     inkscape:cy="333.68047"
     inkscape:window-width="3840"
     inkscape:window-height="2054"
     inkscape:window-x="-11"
     inkscape:window-y="-11"
     inkscape:window-maximized="1"
     inkscape:current-layer="layer1" />
  <defs
     id="defs176">
    <rect
       x="293.22058"
       y="403.68973"
       width="200.93565"
       height="51.825031"
       id="rect27339" />
    <rect
       x="188.6613"
       y="407.78116"
       width="62.735565"
       height="55.916481"
       id="rect5382" />
    <filter
       style="color-interpolation-filters:sRGB"
       inkscape:label="Blur"
       id="filter3683"
       x="-0.27928409"
       y="-0.82917178"
       width="1.5586098"
       height="2.6582973">
      <feGaussianBlur
         stdDeviation="47.3014 47.3"
         result="blur"
         id="feGaussianBlur3681" />
    </filter>
    <filter
       style="color-interpolation-filters:sRGB"
       inkscape:label="Blur"
       id="filter3683-7"
       x="-0.27928409"
       y="-0.82917178"
       width="1.5586098"
       height="2.6582973">
      <feGaussianBlur
         stdDeviation="47.3014 47.3"
         result="blur"
         id="feGaussianBlur3681-5" />
    </filter>
  </defs>
  <g
     inkscape:label="Calque 1"
     inkscape:groupmode="layer"
     id="layer1">
    <path
       id="path41325-4"
       style="fill:#000000;stroke-width:0.284012"
       d="m 162.75176,25.237116 c -2.05198,0.0301 -3.86615,2.074698 -3.42775,4.128886 -0.61526,-1.191894 -1.04388,-2.700765 -2.40626,-3.255842 -2.02585,-1.022364 -4.74903,0.392197 -5.07945,2.635655 -0.3126,1.637421 0.89281,2.997342 1.46113,4.427886 0.0927,0.199317 -0.40466,-0.392057 -0.58288,-0.438577 -1.79408,-1.239654 -4.52472,-0.33324 -5.29721,1.684518 -0.54054,1.166584 -0.14995,2.509147 0.46066,3.516811 1.36674,2.801362 2.73348,5.602717 4.10022,8.404072 -1.41238,-1.613721 -4.21568,-1.386161 -5.44987,0.329107 -0.96299,1.156714 -0.92664,2.870175 -0.12969,4.104619 1.85716,3.760466 3.63466,7.559995 5.55284,11.288684 2.73124,4.789123 8.11108,7.760738 13.57501,7.927225 7.23729,0.34851 14.48283,-4.034676 17.39151,-10.69608 2.02139,-4.413343 1.94223,-9.746393 -0.36044,-14.037559 -2.71697,-5.52824 -5.3737,-11.090276 -8.12806,-16.597546 -1.14892,-1.770678 -3.90573,-1.936188 -5.35751,-0.452417 -0.842,0.772217 -1.27285,1.978168 -1.0605,3.106702 -0.82256,-1.581941 -1.48852,-3.255882 -2.40431,-4.783183 -0.66976,-0.863874 -1.77135,-1.341361 -2.85744,-1.292961 z" />
    <g
       aria-label="alculatrice"
       transform="matrix(0.43121045,0,0,0.57450822,57.969404,-192.93881)"
       id="text27337-7"
       style="font-size:40px;line-height:1.25;white-space:pre;shape-inside:url(#rect27339);fill:#000000">
      <path
         id="path41723"
         style="font-family:'Comic Sans MS';-inkscape-font-specification:'Comic Sans MS, Normal';fill:#000000"
         d="m 304.52539,417.57812 c -5.89029,0.23739 -11.10882,5.01923 -12.16176,10.76854 -0.50809,2.69678 -0.31803,5.52367 0.42954,8.15741 0.74725,2.65697 2.68052,5.00803 5.31274,5.95423 2.70777,1.03691 5.84298,1.12393 8.50633,-0.10385 0.4816,-0.19865 0.95779,-0.40971 1.43073,-0.62789 1.07243,1.17964 2.71887,2.20788 4.35472,1.59195 2.03846,-0.60847 3.41534,-3.12499 2.36844,-5.09463 -0.95725,-2.20463 -1.94689,-4.51885 -1.74881,-6.97896 0.032,-2.10678 -0.0631,-4.25757 0.34987,-6.325 1.15799,-1.97076 -0.0572,-4.56061 -1.98709,-5.51707 -2.04544,-1.24162 -4.4563,-1.92344 -6.85471,-1.82473 z m 0.60352,8.11524 c -0.31732,2.99516 0.0758,6.00053 0.38671,8.97852 -1.10422,0.84207 -2.68913,1.21608 -4.0039,0.70312 -1.09155,-0.5919 -1.10732,-2.00784 -1.29454,-3.08747 -0.33693,-2.63108 0.99378,-5.47179 3.43677,-6.62003 0.47709,-0.22538 0.99864,-0.35759 1.52574,-0.3843 -0.0169,0.13672 -0.0339,0.27344 -0.0508,0.41016 z" />
      <path
         id="path41720"
         style="font-family:'Comic Sans MS';-inkscape-font-specification:'Comic Sans MS, Normal';fill:#000000"
         d="m 319.24219,406.53516 c -2.03956,0.051 -3.82845,1.94052 -3.62557,4.00212 -0.15235,6.51585 -0.16523,13.03506 -0.35928,19.5499 -0.0954,3.27725 -0.41573,6.56285 -0.21209,9.83941 0.27917,1.99097 2.33585,3.34845 4.27897,3.12614 2.08126,-0.0654 3.77675,-2.0219 3.69084,-4.07687 0.26021,-4.02364 0.24029,-8.05969 0.41031,-12.08776 0.10989,-5.39465 0.1952,-10.79199 0.2643,-16.18553 0.0212,-1.45433 -0.58695,-3.01617 -1.96181,-3.67872 -0.75833,-0.42129 -1.63102,-0.53276 -2.48567,-0.48869 z" />
      <path
         id="path41717"
         style="font-family:'Comic Sans MS';-inkscape-font-specification:'Comic Sans MS, Normal';fill:#000000"
         d="m 335.8457,417.19727 c -3.39574,0.0152 -6.23657,2.43632 -7.9784,5.17182 -2.57836,3.80791 -4.0989,8.66814 -2.84582,13.22466 1.24802,4.52468 5.75595,7.7077 10.38118,7.83192 3.01905,0.14574 5.94796,-1.07177 8.43007,-2.69815 1.53266,-1.08647 2.40338,-3.22915 1.51404,-4.99019 -0.80973,-1.94922 -3.41842,-3.06643 -5.27347,-1.86519 -1.52363,0.74577 -3.05786,1.9912 -4.86432,1.57708 -1.5803,-0.17314 -3.04208,-1.57074 -2.84756,-3.2371 0.0701,-2.33513 1.28244,-4.46656 2.60538,-6.3215 0.39098,-0.5349 1.00282,-0.94044 1.68415,-0.74634 1.03917,-0.0195 1.98331,0.48616 2.67717,1.22877 1.83268,1.38856 4.79712,0.53086 5.62604,-1.61079 1.01767,-2.05624 -0.14949,-4.63597 -2.13596,-5.61196 -2.09527,-1.25302 -4.53669,-1.9067 -6.9725,-1.95303 z" />
      <path
         id="path41714"
         style="font-family:'Comic Sans MS';-inkscape-font-specification:'Comic Sans MS, Normal';fill:#000000"
         d="m 349.93945,417.13867 c -2.08392,-0.20453 -4.01235,1.55688 -4.15203,3.61413 -0.98162,5.30414 -0.5807,10.75211 0.23797,16.04798 0.3263,2.11449 1.5818,4.05729 3.45508,5.11719 2.65282,1.59064 5.9478,1.48419 8.86504,0.81069 0.50599,-0.20449 0.93895,-0.2992 1.27363,0.21861 1.90864,1.52478 5.10068,0.83664 6.12109,-1.41407 0.81004,-1.72342 0.1199,-3.63973 0.26491,-5.45272 -0.051,-4.52357 -0.0637,-9.0521 0.27911,-13.56534 0.11126,-1.44878 0.05,-3.10093 -1.13777,-4.13037 -1.7342,-1.66773 -5.02518,-1.50983 -6.26562,0.67382 -0.93705,1.63806 -0.70193,3.60089 -0.90407,5.40857 -0.18502,3.36807 -0.0501,6.74215 -0.053,10.11292 -1.34222,0.28599 -2.7354,0.51647 -4.10352,0.28125 -0.48964,-3.29077 -0.69276,-6.6516 -0.34961,-9.9668 0.20095,-1.74959 0.70458,-3.60981 0.0762,-5.32226 -0.59965,-1.41734 -2.07451,-2.39589 -3.60743,-2.4336 z" />
      <path
         id="path41711"
         style="font-family:'Comic Sans MS';-inkscape-font-specification:'Comic Sans MS, Normal';fill:#000000"
         d="m 371.54688,406.53516 c -2.03956,0.051 -3.82845,1.94052 -3.62558,4.00212 -0.15235,6.51585 -0.16523,13.03506 -0.35927,19.5499 -0.0967,3.27721 -0.4135,6.56283 -0.21209,9.83941 0.27916,1.99097 2.33585,3.34845 4.27897,3.12614 2.08126,-0.0654 3.77675,-2.0219 3.69084,-4.07687 0.26037,-4.0308 0.2408,-8.07399 0.41077,-12.10923 0.10879,-5.45419 0.2055,-10.91232 0.25925,-16.36472 -0.005,-1.53625 -0.83302,-3.1395 -2.34935,-3.65754 -0.65934,-0.28108 -1.3853,-0.33176 -2.09354,-0.30921 z" />
      <path
         id="path41708"
         style="font-family:'Comic Sans MS';-inkscape-font-specification:'Comic Sans MS, Normal';fill:#000000"
         d="m 388.25586,417.57812 c -5.8903,0.23739 -11.10882,5.01923 -12.16176,10.76854 -0.50809,2.69678 -0.31803,5.52367 0.42954,8.15741 0.74725,2.65697 2.68052,5.00803 5.31274,5.95423 2.70788,1.0369 5.84374,1.12457 8.50642,-0.10558 0.48294,-0.19615 0.95822,-0.41027 1.43259,-0.62616 1.06998,1.18177 2.7184,2.20623 4.35277,1.59195 2.03833,-0.60841 3.41559,-3.1251 2.36825,-5.09455 -0.96196,-2.20254 -1.94431,-4.51977 -1.74862,-6.97904 0.0318,-2.108 -0.0629,-4.26071 0.34987,-6.3289 1.1584,-1.9678 -0.0576,-4.55839 -1.98709,-5.51317 -2.04556,-1.24178 -4.45608,-1.92358 -6.85471,-1.82473 z m 0.60352,8.11524 c -0.31732,2.99516 0.0758,6.00053 0.38671,8.97852 -1.10423,0.84207 -2.68913,1.21608 -4.0039,0.70312 -1.09155,-0.5919 -1.10732,-2.00784 -1.29454,-3.08747 -0.33693,-2.63108 0.99378,-5.47179 3.43677,-6.62003 0.47709,-0.22538 0.99864,-0.35759 1.52574,-0.3843 -0.0169,0.13672 -0.0339,0.27344 -0.0508,0.41016 z" />
      <path
         id="path41705"
         style="font-family:'Comic Sans MS';-inkscape-font-specification:'Comic Sans MS, Normal';fill:#000000"
         d="m 406.35352,410.67383 c -2.35739,-0.0488 -4.35816,2.29977 -3.97425,4.61982 0.0255,0.72311 0.0368,1.44677 0.0778,2.16924 -1.65177,-0.25954 -3.64659,-0.28845 -4.82226,1.11133 -1.67055,1.81703 -1.3905,5.23144 0.91646,6.39144 1.26513,0.70372 2.82697,0.52593 4.15189,0.75504 0.10972,4.43871 0.4632,8.91028 0.20344,13.31873 -0.0695,1.42622 0.43932,2.95364 1.72448,3.71392 1.77112,1.23666 4.60154,0.8121 5.61896,-1.19671 1.30182,-2.2911 0.80921,-5.01429 0.82262,-7.52258 -0.0913,-2.83687 -0.18253,-5.67375 -0.27379,-8.51062 1.64774,-0.0807 3.54537,0.40691 4.91211,-0.80078 2.03586,-1.5689 2.09819,-5.13916 -0.10352,-6.58789 -1.43744,-1.0042 -3.28524,-0.8116 -4.94336,-0.77344 0.0664,-2.12844 -0.1889,-4.64466 -2.03515,-6.01367 -0.66312,-0.4587 -1.46937,-0.6977 -2.27539,-0.67383 z" />
      <path
         id="path41702"
         style="font-family:'Comic Sans MS';-inkscape-font-specification:'Comic Sans MS, Normal';fill:#000000"
         d="m 431.01172,417.37305 c -2.4828,-0.0269 -4.96315,0.78966 -7.04688,2.04687 -1.24784,-1.95321 -4.33437,-2.28935 -5.92187,-0.58203 -0.99713,0.98093 -1.15833,2.43116 -1.10665,3.75709 -0.14864,5.82409 -0.0696,11.65356 -0.0594,17.47729 0.14297,1.80123 1.66337,3.42389 3.51367,3.44531 2.03211,0.22699 4.2488,-1.27308 4.30425,-3.42269 0.16977,-2.11275 -0.015,-4.23568 0.0482,-6.35309 0.0245,-1.58047 -0.12132,-3.19931 0.0772,-4.75547 0.72728,-1.47193 1.99161,-2.72107 3.57227,-3.23242 -0.0355,1.57981 0.49144,3.39851 2.0625,4.08203 2.11654,1.08043 5.11061,-0.14877 5.58066,-2.55263 0.46959,-1.81637 0.32419,-3.74045 0.0488,-5.57596 -0.4035,-2.08324 -2.00925,-4.06536 -4.22268,-4.27721 -0.281,-0.0417 -0.56682,-0.0475 -0.85009,-0.0571 z" />
      <path
         id="path41699"
         style="font-family:'Comic Sans MS';-inkscape-font-specification:'Comic Sans MS, Normal';fill:#000000"
         d="m 441.82812,408.70117 c -2.78882,-0.0488 -5.08005,3.03793 -4.13095,5.68598 0.7386,2.67758 4.30046,4.00112 6.59754,2.41553 2.22139,-1.31969 2.75929,-4.72003 0.94943,-6.60541 -0.85949,-0.95694 -2.12252,-1.54244 -3.41602,-1.4961 z m -0.92578,9.26563 c -2.15959,0.11615 -3.87193,2.2405 -3.66153,4.3679 -0.0951,4.08683 -0.57136,8.19232 -0.32181,12.31296 0.0957,1.65772 -0.0781,3.35913 0.28966,4.98389 0.72443,2.33189 3.75727,3.391 5.83822,2.1829 1.64694,-0.88242 2.2622,-2.9101 2.00568,-4.6694 -0.1285,-3.95679 -0.18177,-7.92228 0.16525,-11.86984 0.0285,-1.70325 0.40106,-3.55354 -0.3389,-5.16583 -0.73682,-1.44723 -2.36672,-2.30544 -3.97657,-2.14258 z" />
      <path
         id="path41696"
         style="font-family:'Comic Sans MS';-inkscape-font-specification:'Comic Sans MS, Normal';fill:#000000"
         d="m 457.89648,417.19727 c -3.39574,0.0152 -6.23657,2.43632 -7.9784,5.17182 -2.57836,3.80791 -4.09889,8.66814 -2.84581,13.22466 1.24801,4.52468 5.75594,7.7077 10.38117,7.83192 3.01939,0.14634 5.94751,-1.07269 8.43007,-2.69815 1.53266,-1.08647 2.40338,-3.22915 1.51404,-4.99019 -0.80973,-1.94922 -3.41842,-3.06643 -5.27347,-1.86519 -1.52363,0.74577 -3.05786,1.9912 -4.86431,1.57708 -1.58031,-0.17314 -3.04209,-1.57074 -2.84757,-3.2371 0.0701,-2.33513 1.28245,-4.46656 2.60538,-6.3215 0.39098,-0.5349 1.00282,-0.94044 1.68415,-0.74634 1.03917,-0.0195 1.98331,0.48616 2.67718,1.22877 1.83267,1.38856 4.79712,0.53086 5.62603,-1.61079 1.01767,-2.05624 -0.14949,-4.63597 -2.13595,-5.61196 -2.09528,-1.25302 -4.5367,-1.9067 -6.97251,-1.95303 z" />
      <path
         id="path41693"
         style="font-family:'Comic Sans MS';-inkscape-font-specification:'Comic Sans MS, Normal';fill:#000000"
         d="m 477.94727,417.55469 c -3.61342,0.11763 -6.98975,2.29089 -8.77652,5.40532 -2.19008,3.56177 -2.8214,7.99591 -2.00021,12.06977 0.8762,3.70773 4.02179,6.65636 7.69709,7.53453 4.66009,1.27816 9.91802,0.2518 13.74175,-2.70298 1.64029,-1.38989 2.55991,-3.93319 1.36132,-5.88672 -1.08423,-1.86662 -3.94268,-2.59606 -5.57422,-1.01563 -0.66677,0.59473 -1.06563,1.54525 -2.03515,1.70508 -1.92185,0.69288 -4.15033,0.98649 -6.05664,0.0899 3.12967,-1.54099 6.4328,-2.82351 9.36234,-4.75645 1.85687,-1.35865 3.16592,-3.67361 2.77383,-6.01134 -0.25618,-2.77357 -2.53121,-5.00027 -5.13227,-5.74784 -1.72368,-0.56985 -3.55502,-0.7222 -5.36132,-0.68359 z m 0.19921,7.84765 c -0.51853,0.26493 -1.20665,0.59721 -1.79687,0.87305 0.49753,-0.54103 1.18957,-0.91294 1.93164,-0.94336 l -0.0887,0.0463 z" />
    </g>
    <path
       d="m 49.87664,50.057125 c 1.033515,0 2.018464,0.302189 2.95456,0.906846 0.936098,0.604658 1.404149,1.355297 1.404149,2.252486 0,0.877593 -0.380291,1.735589 -1.14087,2.574271 -0.76058,0.819086 -1.77478,1.316387 -3.04232,1.491906 -0.546153,0.0781 -1.365237,0.117012 -2.457257,0.117012 0.214427,1.657771 0.63391,2.749788 1.257882,3.276344 0.195115,0.214429 0.458391,0.321786 0.789832,0.321786 1.209032,0 2.223233,-0.380291 3.042319,-1.140871 0.819087,-0.780176 1.404147,-1.170122 1.755185,-1.170122 0.155922,0 0.389946,0.146264 0.702072,0.438796 0.312129,0.292528 0.468051,0.565464 0.468051,0.819087 0,0.506957 -0.614315,1.238284 -1.842945,2.193977 -0.54615,0.448453 -1.209032,0.828744 -1.989209,1.140871 -0.760579,0.292531 -1.472308,0.438795 -2.135473,0.438795 -1.696678,0 -2.944902,-1.09202 -3.744394,-3.276343 -0.506957,-1.345642 -0.760579,-2.827891 -0.760579,-4.446466 0,-1.618576 0.380291,-3.013067 1.14087,-4.18319 0.760579,-1.170122 1.959957,-1.755185 3.598127,-1.755185 z m 0.146267,2.018464 c -0.740984,0 -1.374894,0.419198 -1.901449,1.257882 -0.195117,0.292529 -0.380291,0.955694 -0.555811,1.989209 2.730193,0 4.09543,-0.672822 4.09543,-2.018464 0,-0.819086 -0.54615,-1.228627 -1.63817,-1.228627 z m 17.301345,0.936096 -0.08776,7.430281 c 0,1.05311 0,1.755185 0,2.106221 0.01961,0.351038 -0.107357,0.643567 -0.380291,0.877593 -0.272934,0.234024 -0.594717,0.351036 -0.965351,0.351036 -0.370633,0 -0.623969,-0.243681 -0.760579,-0.731326 -0.234024,-4.407557 -0.351036,-7.040333 -0.351036,-7.898329 0,-0.877594 0,-1.394492 0,-1.550414 v -1.345641 c -0.429141,0.0781 -0.877594,0.117012 -1.345642,0.117012 -0.448452,0 -0.819086,-0.0097 -1.111617,-0.02925 0.03891,0.780177 0.126669,2.174383 0.263279,4.183189 0.136607,1.989209 0.204771,3.929568 0.204771,5.82136 0,0.389948 -0.155921,0.702075 -0.46805,0.936099 -0.312127,0.234023 -0.63391,0.351038 -0.965351,0.351038 -0.526555,0 -0.789834,-0.312129 -0.789834,-0.936098 0,-1.755185 -0.06816,-3.46152 -0.204772,-5.119288 -0.136607,-1.657768 -0.234024,-3.403013 -0.292529,-5.2363 -1.755184,0 -2.779043,-0.17552 -3.071574,-0.526556 -0.117012,-0.136609 -0.175516,-0.312126 -0.175516,-0.526555 0,-0.506957 0.204771,-0.838681 0.614314,-0.994603 0.429139,-0.156009 0.916501,-0.234027 1.462654,-0.234027 0.54615,0 0.936096,0 1.170122,0 0.05851,-3.178841 0.234024,-5.14854 0.526556,-5.909119 0.175516,-0.468048 0.409543,-0.809344 0.702072,-1.023858 0.312129,-0.234024 0.575405,-0.360778 0.789834,-0.380288 0.234024,-0.03899 0.614315,-0.05851 1.14087,-0.05851 1.969611,0 3.227493,0.370549 3.773646,1.111617 0.409543,0.56555 0.614315,1.257882 0.614315,2.076969 0,0.429054 -0.165862,0.819084 -0.497303,1.170122 -0.331441,0.351036 -0.692417,0.526556 -1.082363,0.526556 -0.0196,0 -0.03891,0 -0.05851,0 -1.09202,-0.117012 -1.638173,-0.672823 -1.638173,-1.667426 0,-0.156006 0.07811,-0.409543 0.234027,-0.760579 -0.312129,-0.175519 -0.653225,-0.263279 -1.023859,-0.263279 -0.857996,0 -1.296791,0.760579 -1.316389,2.28174 -0.01961,0.156007 -0.02925,0.321784 -0.02925,0.497303 l 0.05851,2.486509 3.393355,-0.146264 c 0.487646,0 0.857996,0.06825 1.111615,0.204772 0.272937,0.136609 0.438799,0.409543 0.497303,0.819086 0.03891,0.526555 0.05851,1.189718 0.05851,1.989206 z m 1.298495,3.744394 c 0,-1.306732 0.341379,-2.496167 1.023856,-3.568875 0.702074,-1.072705 1.589602,-1.872197 2.662026,-2.398752 1.072704,-0.546066 2.116148,-0.819084 3.130062,-0.819084 1.014194,0 1.823618,0.126751 2.427985,0.380288 0.624257,0.234024 0.936097,0.555808 0.936097,0.965351 0,0.389948 -0.11701,0.789834 -0.35104,1.199378 -0.214417,0.389945 -0.506947,0.58506 -0.877584,0.58506 -0.13632,0 -0.516607,-0.107355 -1.140864,-0.321784 -0.604367,-0.234024 -0.994594,-0.351036 -1.170114,-0.351036 -1.130924,0 -2.096268,0.419198 -2.896032,1.257882 -0.799487,0.819087 -1.199374,1.911107 -1.199374,3.276343 0,1.36524 0.21471,2.389095 0.643567,3.071573 0.448727,0.663164 1.209301,0.994605 2.281725,0.994605 0.42914,0 1.160454,-0.243681 2.193968,-0.731327 1.053104,-0.50696 1.706611,-0.760579 1.959941,-0.760579 0.253617,0 0.458397,0.0781 0.614314,0.234024 0.15621,0.155922 0.23402,0.351036 0.23402,0.58506 0,0.468051 -0.302177,0.965354 -0.906834,1.491909 -0.585057,0.506957 -1.316384,0.936098 -2.193968,1.287134 -0.877584,0.331441 -1.667421,0.497303 -2.369488,0.497303 -1.560061,0 -2.788687,-0.614315 -3.685876,-1.842945 -0.877591,-1.228629 -1.316387,-2.90571 -1.316387,-5.031528 z M 82.304322,45.113357 c 0.351027,0 0.682467,0.165777 0.994594,0.497302 0.312127,0.331526 0.468047,0.682562 0.468047,1.053111 0,0.351036 -0.175517,0.711816 -0.526557,1.082363 -0.331427,0.370549 -0.682467,0.55581 -1.053104,0.55581 -0.370627,0 -0.711724,-0.156009 -1.023844,-0.468051 -0.292527,-0.312041 -0.438797,-0.711814 -0.438797,-1.199374 0,-0.936099 0.506957,-1.443144 1.521151,-1.521161 0.0196,0 0.0389,0 0.0585,0 z m 1.228614,15.328609 0.0293,2.047716 c 0,0.370634 -0.14626,0.682477 -0.43879,0.936098 -0.292527,0.234024 -0.604654,0.351036 -0.936094,0.351036 -0.487647,0 -0.740974,-0.243681 -0.760574,-0.731326 -0.25362,-6.221249 -0.38029,-9.663171 -0.38029,-10.326334 0,-0.663165 0.0293,-1.472311 0.0878,-2.428004 0.0389,-0.351039 0.26328,-0.526555 0.672827,-0.526555 1.033504,0 1.618561,0.419282 1.755171,1.257882 0.0585,0.429138 0.0878,0.770233 0.0878,1.023855 l -0.117017,1.842945 z m 7.594965,-10.384841 c 1.033514,0 2.018448,0.302189 2.954545,0.906846 0.936094,0.604658 1.404141,1.355297 1.404141,2.252486 0,0.877593 -0.380287,1.735589 -1.140864,2.574271 -0.760574,0.819086 -1.774768,1.316387 -3.042302,1.491906 -0.546147,0.0781 -1.365231,0.117012 -2.457245,0.117012 0.214427,1.657771 0.633904,2.749788 1.257871,3.276344 0.19512,0.214429 0.458397,0.321786 0.789837,0.321786 1.209021,0 2.223218,-0.380291 3.042302,-1.140871 0.819074,-0.780176 1.404131,-1.170122 1.755171,-1.170122 0.155917,0 0.389947,0.146264 0.702064,0.438796 0.31213,0.292528 0.468047,0.565464 0.468047,0.819087 0,0.506957 -0.614304,1.238284 -1.842928,2.193977 -0.546147,0.448453 -1.209024,0.828744 -1.989198,1.140871 -0.760577,0.292531 -1.472304,0.438795 -2.135458,0.438795 -1.696671,0 -2.944895,-1.09202 -3.744379,-3.276343 -0.506957,-1.345642 -0.760577,-2.827891 -0.760577,-4.446466 0,-1.618576 0.38029,-3.013067 1.140864,-4.18319 0.760577,-1.170122 1.959948,-1.755185 3.598109,-1.755185 z m 0.14627,2.018464 c -0.740987,0 -1.374891,0.419198 -1.901438,1.257882 -0.19512,0.292529 -0.38029,0.955694 -0.555807,1.989209 2.730172,0 4.095406,-0.672822 4.095406,-2.018464 0,-0.819086 -0.546147,-1.228627 -1.638161,-1.228627 z m 8.408362,10.618865 -0.321787,-11.876747 c 0,-0.370634 0.126667,-0.672822 0.380287,-0.906846 0.25363,-0.234024 0.506957,-0.351036 0.760577,-0.351036 0.62398,0 0.98495,0.263276 1.08237,0.789831 0.0781,0.526556 0.11701,1.072709 0.11701,1.638173 1.05311,-1.384551 2.3695,-2.076968 3.94916,-2.076968 2.41835,0 3.62739,2.759445 3.62739,8.278619 0,0.506958 0,1.277477 0,2.310993 0,1.014201 -0.0585,1.755185 -0.17552,2.223233 -0.13661,0.585062 -0.55581,0.877591 -1.25789,0.877591 -0.46804,0 -0.70207,-0.312126 -0.70207,-0.936098 l 0.0293,-1.638171 c 0,-2.262143 -0.0781,-3.802899 -0.23403,-4.621985 -0.13661,-0.838684 -0.27294,-1.501563 -0.40954,-1.989209 -0.33144,-1.053111 -0.86794,-1.579666 -1.60892,-1.579666 -0.97501,0 -1.65777,0.351036 -2.04772,1.053111 -0.42914,0.760579 -0.68247,1.657768 -0.76058,2.69128 -0.13661,1.813693 -0.20477,3.734737 -0.20477,5.762856 0,0.389948 -0.14626,0.702075 -0.4388,0.936099 -0.29253,0.234023 -0.64356,0.351038 -1.05311,0.351038 -0.487637,0 -0.731317,-0.312129 -0.731317,-0.936098 z m 11.705487,-5.938375 c 0,-1.306732 0.34138,-2.496167 1.02385,-3.568875 0.70208,-1.072705 1.58961,-1.872197 2.66203,-2.398752 1.07271,-0.546066 2.11616,-0.819084 3.13008,-0.819084 1.0142,0 1.82363,0.126751 2.428,0.380288 0.62426,0.234024 0.9361,0.555808 0.9361,0.965351 0,0.389948 -0.117,0.789834 -0.35102,1.199378 -0.21445,0.389945 -0.50697,0.58506 -0.8776,0.58506 -0.13633,0 -0.51662,-0.107355 -1.14087,-0.321784 -0.60438,-0.234024 -0.99461,-0.351036 -1.17013,-0.351036 -1.13093,0 -2.09628,0.419198 -2.89605,1.257882 -0.79949,0.819087 -1.19938,1.911107 -1.19938,3.276343 0,1.36524 0.21471,2.389095 0.64357,3.071573 0.44874,0.663164 1.20932,0.994605 2.28174,0.994605 0.42914,0 1.16047,-0.243681 2.19398,-0.731327 1.05311,-0.50696 1.70661,-0.760579 1.95995,-0.760579 0.25363,0 0.45839,0.0781 0.61431,0.234024 0.15621,0.155922 0.23402,0.351036 0.23402,0.58506 0,0.468051 -0.30218,0.965354 -0.90683,1.491909 -0.58506,0.506957 -1.31639,0.936098 -2.19398,1.287134 -0.87759,0.331441 -1.66743,0.497303 -2.3695,0.497303 -1.56007,0 -2.7887,-0.614315 -3.68589,-1.842945 -0.87759,-1.228629 -1.31638,-2.90571 -1.31638,-5.031528 z m 15.96338,-6.698954 c 1.03351,0 2.01845,0.302189 2.95454,0.906846 0.9361,0.604658 1.40414,1.355297 1.40414,2.252486 0,0.877593 -0.38028,1.735589 -1.14085,2.574271 -0.7606,0.819086 -1.7748,1.316387 -3.04234,1.491906 -0.54612,0.0781 -1.36522,0.117012 -2.45724,0.117012 0.21442,1.657771 0.63392,2.749788 1.25789,3.276344 0.1951,0.214429 0.45839,0.321786 0.78983,0.321786 1.20901,0 2.22322,-0.380291 3.04231,-1.140871 0.8191,-0.780176 1.40414,-1.170122 1.75519,-1.170122 0.15592,0 0.38994,0.146264 0.70207,0.438796 0.31213,0.292528 0.46805,0.565464 0.46805,0.819087 0,0.506957 -0.61431,1.238284 -1.84295,2.193977 -0.54616,0.448453 -1.20902,0.828744 -1.98919,1.140871 -0.7606,0.292531 -1.47233,0.438795 -2.13548,0.438795 -1.69669,0 -2.94492,-1.09202 -3.74441,-3.276343 -0.50694,-1.345642 -0.76057,-2.827891 -0.76057,-4.446466 0,-1.618576 0.38029,-3.013067 1.14088,-4.18319 0.76057,-1.170122 1.95996,-1.755185 3.59813,-1.755185 z m 0.14626,2.018464 c -0.741,0 -1.37491,0.419198 -1.90146,1.257882 -0.1951,0.292529 -0.38028,0.955694 -0.55581,1.989209 2.73018,0 4.09543,-0.672822 4.09543,-2.018464 0,-0.819086 -0.54615,-1.228627 -1.63816,-1.228627 z"
       fill="url(#paint0_diamond_6:10)"
       id="path3150"
       style="fill:#2ca05a;stroke-width:0.284012" />
    <path
       d="m 6.6201541,51.677973 5.2939239,10.85431 c 3.71389,7.614602 13.312759,10.560359 21.460992,6.586484 8.147973,-3.974155 11.73616,-13.351897 8.022442,-20.966528 L 33.252946,31.453536 c -0.562057,-1.152228 -2.018747,-1.59929 -3.251637,-0.997955 -1.232889,0.601337 -1.777621,2.024512 -1.215564,3.176743 L 33.876064,44.068993 32.08907,44.94051 24.555523,29.494207 c -0.561972,-1.152203 -2.018718,-1.59929 -3.251663,-0.997927 -1.232945,0.601335 -1.777479,2.02451 -1.215509,3.176712 l 6.719205,13.776436 -1.78688,0.871513 -7.940875,-16.281235 c -0.56197,-1.152202 -2.018716,-1.599292 -3.251663,-0.997955 -1.232916,0.601363 -1.777479,2.024538 -1.215507,3.176741 l 7.940903,16.281235 -1.78688,0.871514 -6.31199,-12.941501 C 11.892692,35.277538 10.435946,34.83045 9.2030286,35.431785 7.9700842,36.033148 7.4255245,37.456323 7.9874932,38.608526 l 8.7797838,18.001288 c 3.723717,-1.299633 7.825907,0.172395 9.487395,3.579099 l -1.786879,0.871344 C 23.123969,58.305071 19.61218,57.227251 16.663841,58.665198 l -0.893413,0.435954 -4.683104,-9.60188 C 10.525352,48.347044 9.0686066,47.899983 7.8356915,48.501317 6.6027451,49.102651 6.0581844,50.525745 6.6201541,51.677973 Z"
       fill="url(#paint1_linear_6:10)"
       id="path3147"
       style="fill:#2ca05a;stroke-width:0.284012" />
    <circle
       cx="25.783466"
       cy="53.660927"
       r="12.780468"
       fill="#124320"
       id="circle3144"
       style="stroke-width:0.284012" />
    <path
       d="m 23.005536,52.590783 c 1.41778,0.236297 2.717413,0.354444 3.898897,0.354444 1.18151,0 1.935842,-0.0091 2.263024,-0.02726 -0.03635,-1.381427 -0.05453,-2.708323 -0.05453,-3.980688 0,-1.272368 0,-2.135759 0,-2.590176 0,-0.454416 0.01818,-0.736155 0.05453,-0.845214 0.03635,-0.127238 0.1545,-0.245385 0.354443,-0.354446 0.199943,-0.109059 0.490771,-0.163589 0.87248,-0.163589 0.545301,0 0.817951,0.327181 0.817951,0.98154 v 9.65181 c 0,1.999432 -0.04544,4.198807 -0.136326,6.598129 -0.01818,0.527124 -0.463505,0.790683 -1.335985,0.790683 -0.43624,0 -0.654359,-0.263559 -0.654359,-0.790683 l 0.109058,-7.225226 c -0.581652,0.03635 -1.381426,0.05453 -2.399347,0.05453 -0.999715,0 -2.262995,-0.109059 -3.789836,-0.327179 0,2.399319 0.109061,4.907698 0.327181,7.52514 0.01818,0.290825 -0.109061,0.518033 -0.381709,0.681625 -0.272651,0.145412 -0.618009,0.21812 -1.036072,0.21812 -0.399885,0 -0.618005,-0.209032 -0.654359,-0.627095 -0.236297,-2.581087 -0.354446,-5.125821 -0.354446,-7.6342 l 0.163591,-8.50668 c 0,-0.363532 0.136324,-0.627094 0.408975,-0.790686 0.27265,-0.181766 0.563475,-0.272648 0.872479,-0.272648 0.508947,0 0.763421,0.245385 0.763421,0.736153 z"
       fill="url(#paint2_diamond_6:10)"
       id="path3141"
       style="fill:#2ca05a;stroke-width:0.284012" />
    <path
       d="m 146.99525,49.807264 5.29395,10.85425 c 3.71391,7.614555 13.31284,10.5603 21.46112,6.586451 8.14802,-3.974136 11.73622,-13.351822 8.02249,-20.96641 L 173.6282,29.5829 c -0.56207,-1.152228 -2.01877,-1.59929 -3.25167,-0.997955 -1.23289,0.601337 -1.77762,2.024512 -1.21556,3.176743 l 5.09035,10.436641 -1.78701,0.871514 -7.53359,-15.446272 c -0.56197,-1.152203 -2.01873,-1.59929 -3.25168,-0.997927 -1.23295,0.601335 -1.77748,2.02451 -1.21551,3.176712 l 6.71924,13.776404 -1.78689,0.871504 -7.94092,-16.281194 c -0.56197,-1.152202 -2.01873,-1.599292 -3.25169,-0.997955 -1.23291,0.601363 -1.77748,2.024538 -1.2155,3.176741 l 7.94094,16.281186 -1.78689,0.871507 -6.31202,-12.941445 c -0.56198,-1.152202 -2.01873,-1.59929 -3.25166,-0.997955 -1.23295,0.601363 -1.77751,2.024538 -1.21554,3.176741 l 8.77983,18.001187 c 3.72374,-1.299624 7.82595,0.1724 9.48745,3.579079 l -1.78689,0.871347 c -1.34383,-2.755175 -4.85563,-3.832989 -7.80399,-2.395048 l -0.89342,0.435947 -4.68313,-9.601826 c -0.56197,-1.152221 -2.01873,-1.599281 -3.25165,-0.997944 -1.23296,0.601327 -1.77752,2.024411 -1.21555,3.176632 z"
       fill="url(#paint1_linear_6:10)"
       id="path41325"
       style="fill:#2ca05a;stroke-width:0.284012" />
    <circle
       cx="166.15764"
       cy="51.790306"
       r="12.780468"
       fill="#124320"
       id="circle41322"
       style="stroke-width:0.284012" />
    <g
       aria-label="C"
       transform="matrix(0.72936746,0,0,0.61887984,18.411414,-213.77167)"
       id="text5380"
       style="font-size:40px;line-height:1.25;white-space:pre;shape-inside:url(#rect5382);fill:#2ca05a">
      <path
         d="m 210.22461,422.26219 q -1.25,0 -1.875,-1.46484 -0.54688,-1.25 -1.01563,-1.52344 -0.41015,-0.21484 -2.03125,-0.21484 -2.83203,0 -6.28906,4.33594 -4.6875,5.82031 -4.6875,11.03515 0,2.51953 1.6211,4.33594 1.66015,1.875 4.0039,1.875 2.01172,0 4.04297,-1.03516 1.13281,-0.58593 3.47656,-2.30468 1.11328,-0.82032 1.67969,-0.82032 0.83984,0 1.40625,0.64454 0.56641,0.625 0.56641,1.40625 0,0.8789 -0.74219,1.54296 -5.15625,4.57032 -10.42969,4.57032 -4.04297,0 -6.83594,-3.10547 -2.69531,-3.00781 -2.69531,-7.10938 0,-6.62109 5.54688,-13.57422 4.6289,-5.80078 9.33593,-5.80078 0.95704,0 1.71875,0.0977 0.76172,0.0781 1.34766,0.27344 0.68359,-0.9961 1.77734,-0.9961 1.34766,0 1.69922,1.77735 0.3125,1.58203 0.3125,3.88672 0,0.80078 -0.42968,1.40625 -0.52735,0.76171 -1.50391,0.76171 z"
         style="font-family:'Comic Sans MS';-inkscape-font-specification:'Comic Sans MS, Normal'"
         id="path41319" />
    </g>
    <g
       aria-label="alculatrice"
       transform="matrix(0.43121045,0,0,0.57450822,57.891074,-192.87233)"
       id="text27337"
       style="font-size:40px;line-height:1.25;white-space:pre;shape-inside:url(#rect27339)">
      <path
         d="m 311.18945,441.37352 q -0.37109,0 -1.34765,-0.85937 -0.87891,-0.80078 -1.3086,-1.42578 -1.875,1.01562 -3.30078,1.52343 -1.42578,0.52735 -2.38281,0.52735 -4.57031,0 -6.66016,-2.57813 -1.97265,-2.42187 -1.97265,-7.42187 0,-4.72656 3.24218,-8.08594 3.26172,-3.35937 7.77344,-3.35937 1.69922,0 3.8086,0.8789 2.65625,1.09375 2.65625,2.63672 0,0.52734 -0.39063,0.9375 -0.19531,0.74219 -0.3125,2.44141 -0.0977,1.69922 -0.11719,4.35547 -0.0195,2.42187 0.33203,3.82812 0.19532,0.85938 1.23047,3.4375 0.13672,0.35156 0.44922,1.03516 l 0.11719,0.33203 q 0,0.78125 -0.54688,1.28906 -0.54687,0.50781 -1.26953,0.50781 z m -4.0625,-13.57422 q 0,-0.83984 0.0977,-1.8164 0.11719,-0.9961 0.33203,-2.10938 -0.72266,-0.37109 -1.25,-0.54687 -0.50781,-0.17578 -0.82031,-0.17578 -3.02735,0 -5.23438,2.48047 -2.1875,2.46093 -2.1875,5.68359 0,3.20312 1.13282,4.80469 1.13281,1.60156 3.39843,1.60156 1.875,0 3.1836,-0.68359 0.70312,-0.3711 1.97265,-1.48438 -0.625,-5.17578 -0.625,-7.75391 z"
         style="font-family:'Comic Sans MS';-inkscape-font-specification:'Comic Sans MS, Normal';fill:#2ca05a"
         id="path41316" />
      <path
         d="m 321.36523,424.7329 -0.29296,9.70703 q 0,1.54297 -0.15625,4.53125 -0.19532,1.95312 -1.91407,1.95312 -1.91406,0 -1.91406,-1.99218 0,-2.36328 0.21484,-7.08985 0.21485,-4.74609 0.21485,-7.10937 0,-3.08594 0.0976,-7.05078 0.0977,-3.98438 0.0977,-7.07032 0,-1.95312 1.91406,-1.95312 1.9336,0 1.9336,1.95312 0,3.08594 -0.0977,7.07032 -0.0977,3.96484 -0.0977,7.05078 z"
         style="font-family:'Comic Sans MS';-inkscape-font-specification:'Comic Sans MS, Normal';fill:#2ca05a"
         id="path41313" />
      <path
         d="m 336.18945,441.31493 q -4.0039,0 -6.67968,-2.42188 -2.8125,-2.53906 -2.8125,-6.69921 0,-3.96485 2.63671,-8.1836 2.92969,-4.6875 6.60157,-4.6875 1.91406,0 4.27734,0.89844 2.98828,1.15234 2.98828,2.8125 0,0.74219 -0.48828,1.32812 -0.48828,0.56641 -1.21094,0.56641 -0.5664,0 -0.99609,-0.33203 -0.41016,-0.35156 -0.80078,-0.68359 -1.15235,-0.91797 -3.76953,-0.91797 -1.99219,0 -3.94532,3.55468 -1.77734,3.26172 -1.77734,5.64454 0,2.57812 1.75781,4.0625 1.64063,1.38671 4.21875,1.38671 1.17188,0 2.5,-0.625 l 2.26563,-1.21093 q 0.58594,-0.3125 0.83984,-0.3125 0.72266,0 1.25,0.58593 0.52735,0.56641 0.52735,1.3086 0,1.42578 -3.00782,2.7539 -2.63672,1.17188 -4.375,1.17188 z"
         style="font-family:'Comic Sans MS';-inkscape-font-specification:'Comic Sans MS, Normal';fill:#2ca05a"
         id="path41310" />
      <path
         d="m 363.8457,428.67821 q 0,1.40625 0.0195,4.21875 0.0195,2.8125 0.0195,4.21875 0,0.42969 0.0586,1.30859 0.0781,0.87891 0.0781,1.3086 0,0.83984 -0.5664,1.36719 -0.56641,0.54687 -1.38672,0.54687 -1.50391,0 -1.91406,-1.85547 -2.44141,1.26953 -5.625,1.26953 -2.5586,0 -4.23828,-1.13281 -1.85547,-1.25 -2.20704,-3.65234 -0.76171,-5.17578 -0.76171,-9.21875 0,-2.67578 0.58593,-6.09375 0.27344,-1.69922 1.85547,-1.69922 0.83985,0 1.40625,0.54687 0.56641,0.52735 0.56641,1.36719 0,0.89844 -0.29297,2.87109 -0.27344,1.97266 -0.27344,3.00782 0,3.26172 0.21485,5.58593 0.21484,2.32422 0.64453,3.73047 0.64453,0.35157 1.26953,0.54688 0.625,0.17578 1.23047,0.17578 2.61718,0 5.52734,-0.83984 l -0.0195,-3.96485 -0.0391,-3.78906 q 0,-4.21875 0.37109,-7.32422 0.21484,-1.79687 1.89453,-1.79687 0.83985,0 1.40625,0.54687 0.56641,0.54688 0.52735,1.36719 z"
         style="font-family:'Comic Sans MS';-inkscape-font-specification:'Comic Sans MS, Normal';fill:#2ca05a"
         id="path41307" />
      <path
         d="m 373.66992,424.7329 -0.29297,9.70703 q 0,1.54297 -0.15625,4.53125 -0.19531,1.95312 -1.91406,1.95312 -1.91406,0 -1.91406,-1.99218 0,-2.36328 0.21484,-7.08985 0.21485,-4.74609 0.21485,-7.10937 0,-3.08594 0.0976,-7.05078 0.0977,-3.98438 0.0977,-7.07032 0,-1.95312 1.91406,-1.95312 1.93359,0 1.93359,1.95312 0,3.08594 -0.0976,7.07032 -0.0977,3.96484 -0.0977,7.05078 z"
         style="font-family:'Comic Sans MS';-inkscape-font-specification:'Comic Sans MS, Normal';fill:#2ca05a"
         id="path41304" />
      <path
         d="m 394.91992,441.37352 q -0.37109,0 -1.34765,-0.85937 -0.87891,-0.80078 -1.3086,-1.42578 -1.875,1.01562 -3.30078,1.52343 -1.42578,0.52735 -2.38281,0.52735 -4.57031,0 -6.66016,-2.57813 -1.97265,-2.42187 -1.97265,-7.42187 0,-4.72656 3.24218,-8.08594 3.26172,-3.35937 7.77344,-3.35937 1.69922,0 3.80859,0.8789 2.65625,1.09375 2.65625,2.63672 0,0.52734 -0.39062,0.9375 -0.19531,0.74219 -0.3125,2.44141 -0.0977,1.69922 -0.11719,4.35547 -0.0195,2.42187 0.33203,3.82812 0.19532,0.85938 1.23047,3.4375 0.13672,0.35156 0.44922,1.03516 l 0.11719,0.33203 q 0,0.78125 -0.54688,1.28906 -0.54687,0.50781 -1.26953,0.50781 z m -4.0625,-13.57422 q 0,-0.83984 0.0977,-1.8164 0.11719,-0.9961 0.33203,-2.10938 -0.72266,-0.37109 -1.25,-0.54687 -0.50781,-0.17578 -0.82031,-0.17578 -3.02735,0 -5.23438,2.48047 -2.1875,2.46093 -2.1875,5.68359 0,3.20312 1.13281,4.80469 1.13282,1.60156 3.39844,1.60156 1.875,0 3.1836,-0.68359 0.70312,-0.3711 1.97265,-1.48438 -0.625,-5.17578 -0.625,-7.75391 z"
         style="font-family:'Comic Sans MS';-inkscape-font-specification:'Comic Sans MS, Normal';fill:#2ca05a"
         id="path41301" />
      <path
         d="m 413.20117,423.44384 q -0.41015,0 -0.97656,-0.0391 -0.54688,-0.0391 -0.95703,-0.0391 -0.44922,0 -2.65625,0.29297 l 0.37109,11.54297 0.0195,0.85937 0.0195,0.9961 q 0.0781,4.27734 -2.05078,4.27734 -0.78125,0 -1.36718,-0.50781 -0.56641,-0.50781 -0.56641,-1.26953 0,-0.74219 0.0586,-2.22657 0.0586,-1.48437 0.0586,-2.22656 l -0.39063,-11.40625 q -1.42578,-0.0586 -4.33594,-0.33203 -1.73828,-0.23437 -1.73828,-1.93359 0,-0.85938 0.52735,-1.42578 0.52734,-0.56641 1.34765,-0.56641 l 4.10157,0.33203 q 0,-0.99609 -0.0977,-2.65625 -0.0781,-1.67969 -0.0781,-2.42187 0,-0.82032 0.56641,-1.34766 0.56641,-0.54688 1.38672,-0.54688 1.75781,0 2.05078,2.8711 0.0586,0.72265 0.0586,1.73828 l -0.0391,1.13281 -0.0195,1.21094 q 2.42188,-0.3125 2.77344,-0.3125 2.03125,0 2.65625,0.19531 1.1914,0.39063 1.1914,1.83594 0,0.85937 -0.54687,1.42578 -0.52734,0.54688 -1.36719,0.54688 z"
         style="font-family:'Comic Sans MS';-inkscape-font-specification:'Comic Sans MS, Normal';fill:#2ca05a"
         id="path41298" />
      <path
         d="m 434.17773,425.65087 q -0.13671,2.4414 -1.95312,2.4414 -1.67969,0 -1.67969,-1.93359 0,-0.37109 -0.0586,-1.36719 l -0.0586,-1.64062 q -3.08593,0.37109 -4.9414,1.73828 -1.73828,1.26953 -2.89063,3.82812 l 0.0391,10.70313 q 0,1.97265 -1.9336,1.97265 -1.71875,0 -1.71875,-1.97265 v -13.71094 q 0,-0.64453 0.0391,-1.93359 0.0586,-1.28907 0.0586,-1.9336 0,-1.97265 1.71875,-1.97265 1.91406,0 1.93359,3.24218 3.75,-3.61328 8.32031,-3.61328 1.58204,0 2.36329,1.19141 0.78125,1.19141 0.78125,3.59375 0,1.01562 -0.0195,1.36719 z"
         style="font-family:'Comic Sans MS';-inkscape-font-specification:'Comic Sans MS, Normal';fill:#2ca05a"
         id="path41295" />
      <path
         d="m 441.93164,415.3579 q -0.9375,0 -1.62109,-0.66406 -0.6836,-0.66407 -0.6836,-1.60157 0,-0.9375 0.6836,-1.60156 0.68359,-0.66406 1.62109,-0.66406 0.9375,0 1.60156,0.66406 0.6836,0.66406 0.6836,1.60156 0,0.9375 -0.6836,1.60157 -0.66406,0.66406 -1.60156,0.66406 z m 0.87891,15.85937 q 0,1.17188 0.0586,3.51563 0.0781,2.32422 0.0781,3.49609 0,0.85938 -0.52735,1.40625 -0.52734,0.54688 -1.38672,0.54688 -0.83984,0 -1.38672,-0.54688 -0.52734,-0.54687 -0.52734,-1.40625 0,-1.17187 -0.0781,-3.49609 -0.0586,-2.34375 -0.0586,-3.51563 0,-1.83593 0.19531,-4.57031 0.19532,-2.75391 0.19532,-4.58984 0,-0.87891 0.52734,-1.42578 0.54688,-0.54688 1.38672,-0.54688 0.83984,0 1.36719,0.54688 0.54687,0.54687 0.54687,1.42578 0,1.83593 -0.19531,4.58984 -0.19531,2.73438 -0.19531,4.57031 z"
         style="font-family:'Comic Sans MS';-inkscape-font-specification:'Comic Sans MS, Normal';fill:#2ca05a"
         id="path41292" />
      <path
         d="m 458.24023,441.31493 q -4.0039,0 -6.67968,-2.42188 -2.8125,-2.53906 -2.8125,-6.69921 0,-3.96485 2.63672,-8.1836 2.92968,-4.6875 6.60156,-4.6875 1.91406,0 4.27734,0.89844 2.98828,1.15234 2.98828,2.8125 0,0.74219 -0.48828,1.32812 -0.48828,0.56641 -1.21094,0.56641 -0.5664,0 -0.99609,-0.33203 -0.41016,-0.35156 -0.80078,-0.68359 -1.15234,-0.91797 -3.76953,-0.91797 -1.99219,0 -3.94531,3.55468 -1.77735,3.26172 -1.77735,5.64454 0,2.57812 1.75781,4.0625 1.64063,1.38671 4.21875,1.38671 1.17188,0 2.5,-0.625 l 2.26563,-1.21093 q 0.58594,-0.3125 0.83984,-0.3125 0.72266,0 1.25,0.58593 0.52735,0.56641 0.52735,1.3086 0,1.42578 -3.00782,2.7539 -2.63671,1.17188 -4.375,1.17188 z"
         style="font-family:'Comic Sans MS';-inkscape-font-specification:'Comic Sans MS, Normal';fill:#2ca05a"
         id="path41289" />
      <path
         d="m 479.08008,440.9829 q -4.41406,0 -7.14844,-2.20703 -2.98828,-2.44141 -2.98828,-6.83594 0,-5.07813 2.46094,-8.51563 2.67578,-3.75 7.14843,-3.75 3.24219,0 5.29297,1.09375 2.51953,1.34766 2.51953,4.14063 0,1.95312 -2.20703,3.55469 -0.97656,0.70312 -4.14062,2.1875 l -7.46094,3.53515 q 1.09375,1.6211 2.71484,2.44141 1.64063,0.82031 3.8086,0.82031 1.34765,0 3.16406,-0.50781 2.30469,-0.64453 2.96875,-1.67969 0.66406,-1.05469 1.42578,-1.05469 0.6836,0 1.21094,0.52735 0.54687,0.50781 0.54687,1.1914 0,2.16797 -3.49609,3.73047 -2.98828,1.32813 -5.82031,1.32813 z m -0.52735,-17.79297 q -2.38281,0 -3.96484,1.85547 -1.58203,1.83594 -2.36328,5.54687 l 5.99609,-2.85156 q 3.53516,-1.71875 5.03907,-2.98828 -1.67969,-1.5625 -4.70704,-1.5625 z"
         style="font-family:'Comic Sans MS';-inkscape-font-specification:'Comic Sans MS, Normal';fill:#2ca05a"
         id="path41286" />
    </g>
  </g>
</svg>
